<svg xmlns="http://www.w3.org/2000/svg" viewBox="0 0 120 120" width="120" height="120" role="img" aria-label="Pure Sip logo">
  <defs>
    <linearGradient id="drop" x1="0" y1="0" x2="0.5" y2="1">
      <stop offset="0%" stop-color="#3f8fe8"/>
      <stop offset="55%" stop-color="#1c4fb0"/>
      <stop offset="100%" stop-color="#11296e"/>
    </linearGradient>
  </defs>
  <!-- sparkles -->
  <g fill="#1c4fb0">
    <path d="M97 30 l2.4 6.4 6.4 2.4 -6.4 2.4 -2.4 6.4 -2.4 -6.4 -6.4 -2.4 6.4 -2.4 Z"/>
    <path d="M26 24 l1.6 4.3 4.3 1.6 -4.3 1.6 -1.6 4.3 -1.6 -4.3 -4.3 -1.6 4.3 -1.6 Z"/>
    <circle cx="104" cy="64" r="2.4"/>
  </g>
  <!-- droplet -->
  <path d="M58 16 C58 16 92 56 92 80 a34 34 0 1 1 -68 0 C24 56 58 16 58 16 Z" fill="url(#drop)"/>
  <!-- white water ripples inside droplet -->
  <g fill="#ffffff">
    <path d="M34 70 q12 -9 24 0 t24 0 q-12 9 -24 9 t-24 -9 Z" opacity=".95"/>
    <path d="M37 82 q11 -8 21 0 t21 0 q-11 8 -21 8 t-21 -8 Z" opacity=".8"/>
    <path d="M40 94 q9 -6 18 0 t18 0 q-9 7 -18 7 t-18 -7 Z" opacity=".6"/>
    <path d="M64 50 l1.6 4 4 1.6 -4 1.6 -1.6 4 -1.6 -4 -4 -1.6 4 -1.6 Z"/>
  </g>
</svg>
